<svg xmlns="http://www.w3.org/2000/svg" xmlns:xlink="http://www.w3.org/1999/xlink" width="539.195" height="170.418" viewBox="0 0 539.195 170.418">
  <defs>
    <style>
      .cls-1 {
        fill: none;
      }

      .cls-2 {
        fill: #db6161;
      }

      .cls-3 {
        fill: #233862;
      }

      .cls-4 {
        fill: #e69d43;
      }

      .cls-5 {
        fill: #d57912;
      }

      .cls-6 {
        clip-path: url(#clip-path);
      }

      .cls-7 {
        fill: #b65615;
      }

      .cls-8 {
        fill: #d36e2a;
      }

      .cls-9 {
        fill: #739af0;
      }

      .cls-10 {
        fill: #4a75cb;
      }

      .cls-11 {
        fill: #dce7f9;
      }

      .cls-12 {
        fill: #d15050;
      }

      .cls-13 {
        fill: #b64c41;
      }

      .cls-14 {
        fill: #a03c37;
      }

      .cls-15 {
        fill: #c44943;
      }

      .cls-16 {
        fill: #2b478b;
      }

      .cls-17 {
        fill: #ffb27d;
      }

      .cls-18 {
        fill: #ed985f;
      }

      .cls-19 {
        clip-path: url(#clip-path-2);
      }

      .cls-20 {
        fill: #ea8e50;
      }

      .cls-21 {
        fill: #ffb07b;
      }

      .cls-22 {
        fill: #2c3a64;
      }

      .cls-23 {
        fill: #ed975d;
      }

      .cls-24 {
        opacity: 0.1;
      }
    </style>
    <clipPath id="clip-path">
      <rect id="Rectangle_4240" data-name="Rectangle 4240" class="cls-1" width="359.612" height="164.785"/>
    </clipPath>
    <clipPath id="clip-path-2">
      <rect id="Rectangle_4241" data-name="Rectangle 4241" class="cls-1" width="142.044" height="116.203"/>
    </clipPath>
  </defs>
  <g id="Group_11206" data-name="Group 11206" transform="translate(-127.805 -294.582)">
    <g id="Group_11197" data-name="Group 11197" transform="translate(171.805 156.472)">
      <g id="Group_10086" data-name="Group 10086" transform="translate(105.584 138.111)">
        <path id="Path_16006" data-name="Path 16006" class="cls-2" d="M908.578,0V126.626H741.024L759.034,0Z" transform="translate(-698.955 0.001)"/>
        <path id="Path_16007" data-name="Path 16007" class="cls-3" d="M627.735,21.417H797.22V143.708H610.159Z" transform="translate(-561.109 -17.081)"/>
        <rect id="Rectangle_4232" data-name="Rectangle 4232" class="cls-4" width="23.048" height="23.368" transform="translate(116.678 103.259)"/>
        <rect id="Rectangle_4233" data-name="Rectangle 4233" class="cls-5" width="10.552" height="23.368" transform="translate(107.086 103.259)"/>
        <rect id="Rectangle_4234" data-name="Rectangle 4234" class="cls-4" width="38.22" height="23.048" transform="translate(102.729 80.531)"/>
        <rect id="Rectangle_4235" data-name="Rectangle 4235" class="cls-5" width="10.552" height="23.048" transform="translate(93.137 80.531)"/>
        <g id="Group_10085" data-name="Group 10085" transform="translate(0 0)">
          <g id="Group_10084" data-name="Group 10084" class="cls-6">
            <path id="Path_16008" data-name="Path 16008" class="cls-7" d="M33.923,575.648H83.139a2.181,2.181,0,0,0,2.175-2.175v-19.41a2.181,2.181,0,0,0-2.175-2.175H33.923a2.181,2.181,0,0,0-2.174,2.175v19.41a2.181,2.181,0,0,0,2.174,2.175" transform="translate(267.871 -440.183)"/>
            <path id="Path_16009" data-name="Path 16009" class="cls-3" d="M960.923,623.427A21.472,21.472,0,1,0,939.45,644.9a21.472,21.472,0,0,0,21.472-21.472" transform="translate(-787.116 -480.115)"/>
            <path id="Path_16010" data-name="Path 16010" class="cls-3" d="M1366.84,623.427a21.472,21.472,0,1,0-21.472,21.472,21.472,21.472,0,0,0,21.472-21.472" transform="translate(-1275.194 -480.115)"/>
            <path id="Path_16011" data-name="Path 16011" class="cls-3" d="M110.832,623.427A21.472,21.472,0,1,0,89.36,644.9a21.472,21.472,0,0,0,21.472-21.472" transform="translate(235.038 -480.115)"/>
            <path id="Path_16012" data-name="Path 16012" class="cls-8" d="M142.1,665.335a10.837,10.837,0,1,0-10.838,10.837A10.837,10.837,0,0,0,142.1,665.335" transform="translate(193.131 -522.022)"/>
            <path id="Path_16013" data-name="Path 16013" class="cls-9" d="M142.1,665.335a10.837,10.837,0,1,0-10.838,10.837A10.837,10.837,0,0,0,142.1,665.335" transform="translate(193.131 -522.022)"/>
            <path id="Path_16014" data-name="Path 16014" class="cls-10" d="M128.749,668.094a10.836,10.836,0,0,0,17.1,12.522,10.837,10.837,0,1,1-17.1-12.522" transform="translate(188.436 -532.867)"/>
            <path id="Path_16015" data-name="Path 16015" class="cls-3" d="M164.093,694.8a3.36,3.36,0,1,0-3.36,3.36,3.36,3.36,0,0,0,3.36-3.36" transform="translate(163.665 -551.488)"/>
            <path id="Path_16016" data-name="Path 16016" class="cls-3" d="M141.9,731.36a1.3,1.3,0,1,0-1.3,1.3,1.3,1.3,0,0,0,1.3-1.3" transform="translate(189.511 -582.29)"/>
            <path id="Path_16017" data-name="Path 16017" class="cls-3" d="M134.409,683.64a1.3,1.3,0,1,0-1.3,1.3,1.3,1.3,0,0,0,1.3-1.3" transform="translate(198.524 -544.229)"/>
            <path id="Path_16018" data-name="Path 16018" class="cls-3" d="M205.085,683.64a1.3,1.3,0,1,0-1.3,1.3,1.3,1.3,0,0,0,1.3-1.3" transform="translate(113.543 -544.229)"/>
            <path id="Path_16019" data-name="Path 16019" class="cls-3" d="M199.731,731.36a1.3,1.3,0,1,0-1.3,1.3,1.3,1.3,0,0,0,1.3-1.3" transform="translate(119.98 -582.29)"/>
            <path id="Path_16020" data-name="Path 16020" class="cls-3" d="M170.148,662.005a1.3,1.3,0,1,0-1.3,1.3,1.3,1.3,0,0,0,1.3-1.3" transform="translate(155.551 -526.974)"/>
            <path id="Path_16021" data-name="Path 16021" class="cls-8" d="M990.219,665.335a10.837,10.837,0,1,0-10.837,10.837,10.837,10.837,0,0,0,10.837-10.837" transform="translate(-826.647 -522.022)"/>
            <path id="Path_16022" data-name="Path 16022" class="cls-10" d="M990.219,665.335a10.837,10.837,0,1,0-10.837,10.837,10.837,10.837,0,0,0,10.837-10.837" transform="translate(-826.647 -522.022)"/>
            <path id="Path_16023" data-name="Path 16023" class="cls-3" d="M1012.207,694.8a3.36,3.36,0,1,0-3.359,3.36,3.36,3.36,0,0,0,3.359-3.36" transform="translate(-856.113 -551.488)"/>
            <path id="Path_16024" data-name="Path 16024" class="cls-3" d="M990.018,731.36a1.3,1.3,0,1,0-1.3,1.3,1.3,1.3,0,0,0,1.3-1.3" transform="translate(-830.266 -582.29)"/>
            <path id="Path_16025" data-name="Path 16025" class="cls-3" d="M982.522,683.64a1.3,1.3,0,1,0-1.3,1.3,1.3,1.3,0,0,0,1.3-1.3" transform="translate(-821.253 -544.229)"/>
            <path id="Path_16026" data-name="Path 16026" class="cls-7" d="M1053.2,683.64a1.3,1.3,0,1,0-1.3,1.3,1.3,1.3,0,0,0,1.3-1.3" transform="translate(-906.235 -544.229)"/>
            <path id="Path_16027" data-name="Path 16027" class="cls-3" d="M1047.844,731.36a1.3,1.3,0,1,0-1.3,1.3,1.3,1.3,0,0,0,1.3-1.3" transform="translate(-899.797 -582.29)"/>
            <path id="Path_16028" data-name="Path 16028" class="cls-7" d="M1018.262,662.005a1.3,1.3,0,1,0-1.3,1.3,1.3,1.3,0,0,0,1.3-1.3" transform="translate(-864.227 -526.974)"/>
            <path id="Path_16029" data-name="Path 16029" class="cls-3" d="M412.247,623.427A21.472,21.472,0,1,0,390.774,644.9a21.472,21.472,0,0,0,21.472-21.472" transform="translate(-127.384 -480.115)"/>
            <path id="Path_16030" data-name="Path 16030" class="cls-10" d="M197.917,65.405S186.266,47.831,172.8,47.686L174,66.7Z" transform="translate(126.719 -38.034)"/>
            <path id="Path_16031" data-name="Path 16031" class="cls-9" d="M51.186,213.038h93.251l-7.761-62.989A20.428,20.428,0,0,0,116.4,132.12H51.186Z" transform="translate(204.814 -105.378)"/>
            <path id="Path_16032" data-name="Path 16032" class="cls-10" d="M115.7,208.454h26.15l-3.464-24.871a10.363,10.363,0,0,0-10.264-8.934H114.9Z" transform="translate(194.502 -139.299)"/>
            <path id="Path_16033" data-name="Path 16033" class="cls-11" d="M128.925,214.208h17.217a4.3,4.3,0,0,0,4.26-4.863l-2.285-17.208a8.917,8.917,0,0,0-8.684-7.928H128.24Z" transform="translate(183.215 -146.923)"/>
            <path id="Path_16034" data-name="Path 16034" class="cls-12" d="M252.389,126.626H431.751L423.751,0H262.99Z" transform="translate(-123.225 0)"/>
            <path id="Path_16035" data-name="Path 16035" class="cls-13" d="M284.93,140.751H450.686L443.292,23.73H294.727l-7.94,94.854Z" transform="translate(-148.746 -18.927)"/>
            <path id="Path_16036" data-name="Path 16036" class="cls-10" d="M3.167,531.9h56.9c5.011.333,5.5,2.811,5.5,2.811l4.865,23.533a1.565,1.565,0,0,1-1.643,1.462H54.478a2.229,2.229,0,0,1-1.941-1.5,23.707,23.707,0,0,0-3.678-3.693,23.146,23.146,0,0,0-13.646-4.037c-7.294,0-13.736,2.32-17.617,5.865H3.167c-1.742,0-3.167-.909-3.167-2.02v-20.4c0-1.111,1.425-2.02,3.167-2.02" transform="translate(289.185 -424.239)"/>
            <path id="Path_16037" data-name="Path 16037" class="cls-12" d="M914.685,687.663h18.032a16.753,16.753,0,0,1,2.26-5.807c5.452-8.738,18.2-11.408,25.463-12.224a52.958,52.958,0,0,1,5.312-.36h-31a22.754,22.754,0,0,0-16.055,9.754,26.475,26.475,0,0,0-4.014,8.637" transform="translate(-791.279 -533.807)"/>
            <path id="Path_16038" data-name="Path 16038" class="cls-12" d="M1316.53,687.663h18.033a16.75,16.75,0,0,1,2.713-6.5c8.236-11.878,30.322-11.894,30.322-11.894h-31a22.624,22.624,0,0,0-14.429,7.675,26.8,26.8,0,0,0-5.638,10.716" transform="translate(-1274.46 -533.807)"/>
            <path id="Path_16039" data-name="Path 16039" class="cls-14" d="M938.771,679.026s11.868-2.5,16.277,2.83c5.452-8.738,18.2-11.408,25.463-12.224l.437-.36H954.826a22.755,22.755,0,0,0-16.055,9.754" transform="translate(-811.35 -533.807)"/>
            <path id="Path_16040" data-name="Path 16040" class="cls-14" d="M1316.53,676.946v0s9.926-.223,15.107,4.217c8.236-11.878,30.322-11.894,30.322-11.894h-31a22.625,22.625,0,0,0-14.429,7.675" transform="translate(-1268.822 -533.806)"/>
            <path id="Path_16041" data-name="Path 16041" class="cls-14" d="M527.388,637.882H262.955a2.421,2.421,0,0,1-2.414-2.414v-7.453a2.421,2.421,0,0,1,2.414-2.414H527.388a2.421,2.421,0,0,1,2.414,2.414v7.453a2.421,2.421,0,0,1-2.414,2.414" transform="translate(-222.926 -498.975)"/>
            <path id="Path_16042" data-name="Path 16042" class="cls-14" d="M319.157,668.046h48.911a2.334,2.334,0,0,0,2.327-2.327V643.172a2.334,2.334,0,0,0-2.327-2.327H319.157a2.334,2.334,0,0,0-2.327,2.327v22.547a2.334,2.334,0,0,0,2.327,2.327" transform="translate(-74.912 -511.133)"/>
            <path id="Path_16043" data-name="Path 16043" class="cls-15" d="M286,140.751H451.754L444.36,23.73H415.409c-9.064,26.732-39.722,90.106-127.554,94.854Z" transform="translate(-150.03 -18.927)"/>
            <path id="Path_16044" data-name="Path 16044" class="cls-9" d="M49.895,281.44s2.331,12.528,2.216,14.57a3.409,3.409,0,0,1-3.51,3.039Z" transform="translate(297.66 -224.474)"/>
            <path id="Path_16045" data-name="Path 16045" class="cls-10" d="M60.607,294.931h5.666a1.511,1.511,0,0,0,1.506-1.506V277.783a1.511,1.511,0,0,0-1.506-1.506H60.607a1.511,1.511,0,0,0-1.506,1.506v15.642a1.511,1.511,0,0,0,1.506,1.506" transform="translate(279.87 -220.356)"/>
            <path id="Path_16046" data-name="Path 16046" class="cls-11" d="M65.15,298.142h4.487a1.289,1.289,0,0,0,1.285-1.285V282.726a1.289,1.289,0,0,0-1.285-1.286H65.15a1.289,1.289,0,0,0-1.285,1.286v14.131a1.289,1.289,0,0,0,1.285,1.285" transform="translate(275.762 -224.474)"/>
            <path id="Path_16047" data-name="Path 16047" class="cls-10" d="M86.785,244.144a.318.318,0,0,0,.289-.34v-5.265a.411.411,0,0,0,0-.042,3.33,3.33,0,0,0-3.515-2.931c-2.885.089-4.127,0-4.14,0a.31.31,0,0,0-.307.319.326.326,0,0,0,.271.361c.051,0,1.28.091,4.191,0a2.662,2.662,0,0,1,2.924,2.316V243.8a.318.318,0,0,0,.289.34" transform="translate(256.525 -187.883)"/>
            <path id="Path_16048" data-name="Path 16048" class="cls-10" d="M200.753,371.126h5.276a1.343,1.343,0,1,0,0-2.687h-5.276a1.343,1.343,0,0,0,0,2.687" transform="translate(111.876 -293.864)"/>
            <rect id="Rectangle_4236" data-name="Rectangle 4236" class="cls-4" width="23.048" height="23.048" transform="translate(78.422 103.579)"/>
            <rect id="Rectangle_4237" data-name="Rectangle 4237" class="cls-5" width="10.552" height="23.048" transform="translate(68.83 103.579)"/>
            <path id="Path_16049" data-name="Path 16049" class="cls-3" d="M1579.008,788.633H1591a2.05,2.05,0,0,0-1.855-1.385c-1.851-.3-5.058-1.376-5.773-3.742q-.034-.115-.061-.234c-.568-2.53-4.7.775-4.7.775s-.012.1-.03.274c-.1.923-.339,3.886.426,4.312" transform="translate(-1550.882 -623.971)"/>
            <path id="Path_16050" data-name="Path 16050" class="cls-16" d="M1607.594,474.951s-.628,7.827-1.365,17.236c-1,12.781-2.207,28.48-2.327,31.455-.206,5.164-1.033,13.425-1.033,13.425s-1.961,1.963-5.886,1.135a135.13,135.13,0,0,1-4.5-24.27c-.016-.2-.031-.411-.047-.617-.929-12.7-2.375-39.449-2.375-39.449Z" transform="translate(-1569.822 -377.952)"/>
            <path id="Path_16051" data-name="Path 16051" class="cls-3" d="M1607.594,474.951s-.628,7.827-1.365,17.236l-13.743,21.745c-.016-.2-.031-.411-.047-.617-.929-12.7-2.375-39.449-2.375-39.449Z" transform="translate(-1569.822 -377.952)"/>
            <path id="Path_16052" data-name="Path 16052" class="cls-16" d="M1637.368,463.671s-11.308,28.347-18.743,41.669-9.759,17.04-9.759,17.04-4.26-1.7-4.647-2.866c0,0,2.843-25.718,7.823-31.988,2.813-3.543,6.119-14.174,6.273-17.891s1.007-11.076,1.007-11.076Z" transform="translate(-1602.462 -365.743)"/>
            <path id="Path_16053" data-name="Path 16053" class="cls-17" d="M1618.132,230.884s7.651,3.749,12.062,2.358a10.446,10.446,0,0,0-2.985-2.426c.152-.9.271-1.68.34-2.341a22.013,22.013,0,0,0,.186-2.392l-2.952-2.358-2.8-2.256a11.519,11.519,0,0,1-3.851,9.415" transform="translate(-1598.103 -176.642)"/>
            <path id="Path_16054" data-name="Path 16054" class="cls-9" d="M1586.923,300.924c-.017.475.984,1.018,1.424,1.221a30.9,30.9,0,0,0,9.789,2.816c4.089.424,8.923-.509,10.586-.475a.689.689,0,0,0,.459-.187c.118-.085.2-5.09.118-11.383,0-.254,0-.509-.017-.763v-.085c-.034-2.46-.119-5.039-.238-7.617-.238-5.666-.679-11.129-1.425-14.149a15.359,15.359,0,0,0-4.784-7.634l-1.527-1.357a7.231,7.231,0,0,1-4.75-.577c-1.764-.865-3.694-1.836-4-1.6-2.307,1.714-3.837,5.6-4.669,10.522a55.408,55.408,0,0,0-.7,9.331c0,1.222.034,2.477.1,3.715a118.942,118.942,0,0,1-.238,15.93c-.068.984-.118,1.747-.135,2.29" transform="translate(-1570.926 -206.656)"/>
            <path id="Path_16055" data-name="Path 16055" class="cls-10" d="M1605.8,340.239c37.068-.051,6.837-27.635,6.837-27.635l-6.005-1.34a55.383,55.383,0,0,0-.7,9.331c0,1.221.034,2.477.1,3.715a119,119,0,0,1-.237,15.93" transform="translate(-1589.663 -248.261)"/>
            <rect id="Rectangle_4238" data-name="Rectangle 4238" class="cls-4" width="23.048" height="23.048" transform="translate(38.686 68.75)"/>
            <rect id="Rectangle_4239" data-name="Rectangle 4239" class="cls-5" width="10.552" height="23.048" transform="translate(29.093 68.75)"/>
            <path id="Path_16056" data-name="Path 16056" class="cls-17" d="M1536.509,388.181l1.372-.44a2.894,2.894,0,0,1,4.206-1.755s1.318.7.737,1.526-.474.391-1.268,1.583a2.585,2.585,0,0,1-3.049,1.306l-1.14.033Z" transform="translate(-1494.361 -307.568)"/>
            <path id="Path_16057" data-name="Path 16057" class="cls-9" d="M1559.908,267.946a28.882,28.882,0,0,0,.548,28.778c2.791,4.816,23.874.238,23.874.238s.822-1.484-1.378-3.048c0,0-14.037-2.376-15.711-2.774-1.484-.354-.495-14-2.191-17.954a9.972,9.972,0,0,0-5.142-5.239" transform="translate(-1539.881 -213.712)"/>
            <path id="Path_16058" data-name="Path 16058" class="cls-18" d="M1630.285,232.787a10.19,10.19,0,0,0,5.615,4.58,21.984,21.984,0,0,0,.186-2.392l-2.952-2.358Z" transform="translate(-1606.456 -185.534)"/>
            <path id="Path_16059" data-name="Path 16059" class="cls-17" d="M1625.33,196.174s-7.3,1.213-7.984-3.344-2.089-7.47,2.543-8.436,5.8.636,6.4,2.1.923,9.247-.957,9.68" transform="translate(-1594.353 -146.836)"/>
            <path id="Path_16060" data-name="Path 16060" class="cls-3" d="M1611.586,182.848a7.554,7.554,0,0,1,6.8-7.084c4.555-.671,4.176-3.971,3.656-4.574a51.4,51.4,0,0,0-9.427.94c-5.351,1.348-1.818,9.81-1.027,10.717" transform="translate(-1588.545 -136.54)"/>
            <path id="Path_16061" data-name="Path 16061" class="cls-3" d="M1733.954,762.634l.354-.456,4.02,2.253c.038.769.058,1.657.015,2.437a6.649,6.649,0,0,0,.1,1.578c.084.4.509,2.1,1.754,2.548,1.413.507,1.526,1.593-.885,1.576-.432,0-.856-.005-1.259-.006a3.353,3.353,0,0,1-3.2-2.476,5.7,5.7,0,0,0-.977-1.891,7.04,7.04,0,0,1-1.621-2.206c-.413-1.394,1.7-3.356,1.7-3.356" transform="translate(-1732.197 -607.908)"/>
          </g>
        </g>
      </g>
      <g id="Group_10088" data-name="Group 10088" transform="translate(-44 138.111)">
        <g id="Group_10087" data-name="Group 10087" class="cls-19">
          <path id="Path_16062" data-name="Path 16062" class="cls-17" d="M373.18,248.612l-1.525.291a3.338,3.338,0,0,0-3.907,2.337s-.34,1.277.613,1.209.577-.179,1.923-.245a3.094,3.094,0,0,0,2.857-1.68l.745-.827Z" transform="translate(-283.123 -191.434)"/>
          <path id="Path_16063" data-name="Path 16063" class="cls-3" d="M385.9,186.022c-.469-1.014-.414-1.192-.414-1.192s8.72-6.293,9.512-6.919,9.143-12.2,9.143-12.2l10.285,1.441s-13.841,13.7-15.88,15.251c-3.368,2.556-11.641,4.832-11.641,4.832a3.115,3.115,0,0,1-1.005-1.209" transform="translate(-296.829 -127.596)"/>
          <path id="Path_16064" data-name="Path 16064" class="cls-20" d="M156.026,260.574l1.032.838s2.824-1.012,3.46,2.342c0,0,.17,1.43-.736,1.433a18.072,18.072,0,0,0-1.815-.119,2.32,2.32,0,0,1-2.533-1.679l-.614-.882Z" transform="translate(-119.214 -200.644)"/>
          <path id="Path_16065" data-name="Path 16065" class="cls-10" d="M56.8,196.1a2.11,2.11,0,0,0,.757-1.5s-9.535-7.807-10.5-8.443A117.635,117.635,0,0,1,36.1,175.709c-1.628-1.883-3.645-1.152-5.953-.49l-1.9.545a3.178,3.178,0,0,0-1.009,5.427c5.3,4.392,14.123,9.332,15.773,10.37,4.1,2.577,12.117,5.64,12.117,5.64a5.08,5.08,0,0,0,1.68-1.1" transform="translate(-20.108 -134.373)"/>
          <path id="Path_16066" data-name="Path 16066" class="cls-2" d="M355.086,174.761c-2.122,6.245-9.385,9.191-16.1,8.019l-13.309-2.321,7.462-36.717s13.514-2.379,16.027,2.054c2.2,3.884,7.434,18.65,6.445,26.678a11.4,11.4,0,0,1-.52,2.288" transform="translate(-250.771 -110.191)"/>
          <path id="Path_16067" data-name="Path 16067" class="cls-14" d="M307.941,145.728s19.552-6.032,21.908.546c1.251,3.493,2.029,16.846,1.008,24.868-.992,7.794-6.6,11.9-13.489,10.7l-12.239-2.135Z" transform="translate(-234.952 -110.267)"/>
          <path id="Path_16068" data-name="Path 16068" class="cls-15" d="M217.791,44.806c-.287.752-1.867,1.221-4.135,1.485q-.6.07-1.26.121c-7.669.595-20.855-.626-22-1.4-1.58-1.063-5.578-40.245-5.578-40.245s10.1,1.373,18.1,2.579c2.737.414,5.228.807,6.986,1.119a4.349,4.349,0,0,1,.6.148,2.911,2.911,0,0,1,1.615,1.216c1.043,1.6.886,4.381,1.549,7.6.655,3.182,1.449,7.148,2.173,11.073.187,1.012.369,2.02.543,3.013.049.28.1.558.146.835,1.035,6.006,1.726,11.235,1.262,12.454" transform="translate(-142.313 -3.674)"/>
          <path id="Path_16069" data-name="Path 16069" class="cls-15" d="M377.508,277.634c-2.122,6.245-9.408,9.275-16.128,8.1l-6.589-1.153c4.868-2.191,10.474-10.668,22.716-6.95" transform="translate(-273.193 -213.064)"/>
          <path id="Path_16070" data-name="Path 16070" class="cls-12" d="M271.065,184.029a13.438,13.438,0,0,1-11.908,3.885l-18.872-3.281-9.042-1.572,16.014-31.727s26.193,1.929,28.772,5.9c1.2,1.843.773,9.169-.026,16.488a16.975,16.975,0,0,1-4.938,10.309" transform="translate(-178.059 -116.529)"/>
          <path id="Path_16071" data-name="Path 16071" class="cls-14" d="M301.307,281.143a13.423,13.423,0,0,1-11.9,3.9l-18.883-3.293c2.546-1.477,10.451-5.548,17.885-3.994,5.635,1.178,10.15,1.882,12.895,3.39" transform="translate(-208.308 -213.605)"/>
          <path id="Path_16072" data-name="Path 16072" class="cls-2" d="M249.07,155.584c-2.165,6.038-8.775,8.951-14.846,7.892l-12.239-2.134,7.483-37.25s12.913-1.909,15.17,2.48c1.977,3.845,6.075,18.375,5.054,26.4a12.305,12.305,0,0,1-.623,2.616" transform="translate(-170.931 -95.233)"/>
          <path id="Path_16073" data-name="Path 16073" class="cls-15" d="M257.193,259.5c-2.165,6.038-8.775,8.951-14.846,7.892l-9.794-1.708c5.126-2.308,12.8-9.817,24.64-6.184" transform="translate(-179.068 -199.069)"/>
          <path id="Path_16074" data-name="Path 16074" class="cls-14" d="M115.542,63.521c-5.062-.918-8.764-3.193-10.58-8.006-1.324-3.5-1.433-7.8-1.215-11.53.126-2.146.385-4.5.777-7.08q.342-2.247.816-4.723.757-3.96,1.854-8.538c1.025-4.291,2.271-9.006,3.733-14.179,1.334-4.725,2.493-7.989,3.458-8.61,1.423-.916,4.059-.925,5.87-.8h.005c1.777.121,3,.24,4.235,1.336a5.673,5.673,0,0,1,1.816,3.591c.6,4.969,1.66,13.854,2.759,23.143.006.046.012.093.017.14q.094.8.19,1.6c.006.054.012.109.02.163,0,.027.006.055.006.055a.072.072,0,0,0,.052.015c.137-.035.3-.078.449-.113l.017-.005c3.99-.995,9.6-2.049,13.689-1.591h0c2.121.238,4.43.948,5.145,2.967,1.543,4.33,3.918,17.716,2.975,25.131-.94,7.392-7.8,11.34-14.417,10.69-.394-.04-.744-.015-1.071-.072Z" transform="translate(-79.818 0)"/>
          <path id="Path_16075" data-name="Path 16075" class="cls-2" d="M178.933,30.819s-1.818-26.687-1.9-28.917A1.648,1.648,0,0,0,175.828.254c1.124.08,1.929.211,1.929.211a5.233,5.233,0,0,1,4.128,4.705c.642,5.308,1.854,15.166,3.039,25.132Z" transform="translate(-135.389 -0.196)"/>
          <path id="Path_16076" data-name="Path 16076" class="cls-3" d="M196.668,476.936a7.188,7.188,0,0,0,5.86.818s2.859-.651,3.486.774c0,0-4.385,2.227-5.494,2.837a13.255,13.255,0,0,0-2.326,1.744,1.15,1.15,0,0,1-1.665-.129c-.193-.237-.413-.52-.655-.847-.676-.916-2.251-3.876-2.251-3.876Z" transform="translate(-149.091 -367.245)"/>
          <path id="Path_16077" data-name="Path 16077" class="cls-16" d="M93.325,334.684s-1.409,3.249-4.662,2.652a90.761,90.761,0,0,1-11.189-11.175A25.273,25.273,0,0,1,74,320.727c-3.019-6.99-11.168-17.414-16.348-22.7l12.962-4.689s4.152,8.352,9.676,18.61c3.981,7.391,8.673,15.773,13.039,22.735" transform="translate(-44.39 -225.874)"/>
          <path id="Path_16078" data-name="Path 16078" class="cls-3" d="M80.286,311.949l-2.812,14.211A25.287,25.287,0,0,1,74,320.727c-3.019-6.99-11.167-17.415-16.348-22.7l12.962-4.689s4.152,8.352,9.676,18.61" transform="translate(-44.39 -225.874)"/>
          <path id="Path_16079" data-name="Path 16079" class="cls-3" d="M94.4,480.377s-.141,2.592,3,2.938c0,0,1.9.039,1.9,1.689H90.067a7.108,7.108,0,0,1-.33-2.091,16.341,16.341,0,0,1,1.061-3.957Z" transform="translate(-69.097 -368.801)"/>
          <path id="Path_16080" data-name="Path 16080" class="cls-16" d="M53.364,291.413s5.775,6.345,9.44,17.776c1.994,6.22-3.655,21.856-4.757,27.289a17.318,17.318,0,0,1-6.382-.68,125.744,125.744,0,0,1,1.319-19.87c.848-4.84-7.6-10.352-11.3-19.1-2.512-5.95.544-5.849,4.3-5.992Z" transform="translate(-31.395 -223.948)"/>
          <path id="Path_16081" data-name="Path 16081" class="cls-21" d="M33.763,144.042c-3.213,1.814-9.79.141-9.79.141a9.162,9.162,0,0,0,1.457-7.971l2.523,1.281,2.71,1.376a22.551,22.551,0,0,1,.3,2.429c.031.4.058.85.078,1.341a8.424,8.424,0,0,1,2.726,1.4" transform="translate(-18.459 -104.884)"/>
          <path id="Path_16082" data-name="Path 16082" class="cls-9" d="M37.439,193.082c0,.565-.65.835-.789.862-1.3.237-4.914,1.644-8.173,1.967a26.141,26.141,0,0,1-8.092-.548c-.371-.075-1.241-.309-1.3-.664-.077-.388-10.8-21.854-2.464-31.075.2-.216,1.841.173,3.345.531a6.178,6.178,0,0,0,3.8-.311l1.411.742c1.733.965,5.011,4.4,5.394,7.087.195,1.369.977,2.382,1.2,3.586q.126.668.257,1.3.256,1.247.528,2.375c.49,2.035,1.008,3.788,1.516,5.3.541,1.607,1.071,2.944,1.545,4.062.615,1.45,1.133,2.534,1.458,3.364a4.141,4.141,0,0,1,.36,1.414" transform="translate(-10.356 -125.945)"/>
          <path id="Path_16083" data-name="Path 16083" class="cls-10" d="M47.981,216.06a42.119,42.119,0,0,1-20.374-20.82s12.3,4.535,15.328,5.716q.256,1.247.528,2.375c.49,2.036,1.007,3.788,1.515,5.3.541,1.607,1.071,2.944,1.545,4.062.615,1.451,1.134,2.534,1.458,3.364" transform="translate(-21.258 -150.337)"/>
          <path id="Path_16084" data-name="Path 16084" class="cls-21" d="M152.405,267.52l1.308.48a2.8,2.8,0,0,1,4.249,1.16s.59,1.315-.344,1.6-.594.017-1.906.454a2.5,2.5,0,0,1-3.1-.815l-.889-.652Z" transform="translate(-116.828 -205.928)"/>
          <path id="Path_16085" data-name="Path 16085" class="cls-9" d="M51.114,200.079c.483-1.261.7-1.833.7-1.833s-9.881-8.054-10.888-8.745c-.686-.471-7.517-5.576-10.846-9.555a6.969,6.969,0,0,0-6.775-2.348l-2.075.435a3.085,3.085,0,0,0-1.375,5.361c5.472,4.691,14.7,10.132,16.422,11.264C40.553,197.467,50,201.4,50,201.4a2.432,2.432,0,0,0,1.112-1.325" transform="translate(-14.46 -136.638)"/>
          <path id="Path_16086" data-name="Path 16086" class="cls-20" d="M36.894,145.586a6.763,6.763,0,0,1-5.214-2.431,25.144,25.144,0,0,0,2.207-1.374l2.709,1.376a22.49,22.49,0,0,1,.3,2.429" transform="translate(-24.394 -109.173)"/>
          <path id="Path_16087" data-name="Path 16087" class="cls-21" d="M28.306,117.238s-4.787,3.435-6.88.421-4.121-4.6-1.153-6.921,4.367-1.587,5.31-.751,3.915,6.28,2.723,7.251" transform="translate(-14.46 -84.069)"/>
          <path id="Path_16088" data-name="Path 16088" class="cls-3" d="M11.628,94.249a7.709,7.709,0,0,0-.558-1.974s-.3,1.244-2.575,1.072-5.878.224-7.08,2.815c-.077.165-.145.335-.205.509a6,6,0,0,1-.27-1.436,4.422,4.422,0,0,0,0,2.511c-.006.041-.011.081-.018.122A5.065,5.065,0,0,0,0,99.612a1.58,1.58,0,0,1,.85-.756c-.01,2.017.807,3.988,2.243,4.574,2.1.858,2.082.2,4.193,1.6,0,0,.566-.7.18-1.175s-1.845-1.159-1.03-1.845,1.116.086,1.416-.386-1.2-1.845.73-3.132,3.218-3.09,3.046-4.248" transform="translate(0 -71.053)"/>
          <path id="Path_16089" data-name="Path 16089" class="cls-22" d="M592.261,469.491s1.611,1.493,1.3,2.553-1.768,1.768-1.964,3.064-.982,2-1.69,2h-3.371s-.521-.912.736-1.187,1.731-1.8,1.653-3.213a25.317,25.317,0,0,1,.118-3.3l2.671-.629Z" transform="translate(-451.553 -360.968)"/>
          <path id="Path_16090" data-name="Path 16090" class="cls-22" d="M493.955,488.649a.791.791,0,0,1-.19.055h-8.938a1.534,1.534,0,0,1,1.428-1.115c1.408-.228,3.849-1.046,4.393-2.848.017-.058.033-.117.046-.177.432-1.925,3.574.59,3.574.59s.009.077.023.207c.073.706.261,2.991-.337,3.289" transform="translate(-373.321 -372.56)"/>
          <path id="Path_16091" data-name="Path 16091" class="cls-9" d="M492.66,278.135s.477,5.955,1.038,13.113c.762,9.724,1.679,21.668,1.77,23.931.157,3.929.786,10.214.786,10.214a4.941,4.941,0,0,0,4.479.864,102.818,102.818,0,0,0,3.421-18.465q.017-.234.035-.469C504.9,297.66,506,277.31,506,277.31Z" transform="translate(-379.353 -213.531)"/>
          <path id="Path_16092" data-name="Path 16092" class="cls-10" d="M492.66,278.135s.477,5.955,1.038,13.113l10.456,16.544q.017-.234.035-.469C504.9,297.66,506,277.31,506,277.31Z" transform="translate(-379.353 -213.531)"/>
          <path id="Path_16093" data-name="Path 16093" class="cls-9" d="M502.138,270.95s8.6,21.567,14.26,31.7,7.425,12.964,7.425,12.964,3.241-1.3,3.535-2.18c0,0-2.163-19.567-5.952-24.337-2.14-2.7-4.655-10.784-4.773-13.612s-.766-8.427-.766-8.427Z" transform="translate(-386.651 -205.64)"/>
          <path id="Path_16094" data-name="Path 16094" class="cls-17" d="M458.406,120.756s-3.51,6.176-6.941,6.982a9.373,9.373,0,0,1,.978-3.494c-.342-.4-.643-.774-.9-1.106a20.74,20.74,0,0,1-1.274-1.784l1.165-3.131.79-2.124a10.219,10.219,0,0,0,1.235,1.779,8.4,8.4,0,0,0,4.951,2.877" transform="translate(-346.709 -89.398)"/>
          <path id="Path_16095" data-name="Path 16095" class="cls-23" d="M453.456,123.832a6.514,6.514,0,0,1-1.915,5.26,20.616,20.616,0,0,1-1.274-1.784l1.164-3.13a6.653,6.653,0,0,1,2.025-.345" transform="translate(-346.71 -95.351)"/>
          <path id="Path_16096" data-name="Path 16096" class="cls-17" d="M431.385,107.063s5.245-2.045,3.921-5.291-1.538-5.7-4.943-4.529S426.817,99.914,427,101.1s2.991,6.406,4.389,5.958" transform="translate(-328.753 -74.65)"/>
          <path id="Path_16097" data-name="Path 16097" class="cls-16" d="M479.284,165.152c-2.116,3.042-17.934,7.106-17.747,5a22.879,22.879,0,0,0,0-4.153q-.06-.677-.168-1.435a33.093,33.093,0,0,0-3.486-10.441q-.24-.463-.5-.934a32.2,32.2,0,0,1-2.193-4.928c-1.1-3.167-1.537-6.2-.985-8.178,0-.01.006-.018.009-.028,3.307-1.529,4.588-7.459,4.588-7.459s11.281,2.025,17.6,17.063c0,0,4.723,12.846,2.882,15.493" transform="translate(-349.559 -102.1)"/>
          <path id="Path_16098" data-name="Path 16098" class="cls-3" d="M474.641,208.653q-.06-.677-.168-1.435a33.087,33.087,0,0,0-3.485-10.442,14.764,14.764,0,0,1,1.424-4.888c2.25-3.372,3.56-3.9,3.56-3.9s3.374,14.229-1.331,20.663" transform="translate(-362.665 -144.754)"/>
          <path id="Path_16099" data-name="Path 16099" class="cls-3" d="M429.514,87.6c.037-.072.143-.15.4-.23a1.1,1.1,0,0,0-.528-.02,1.387,1.387,0,0,0-1.176-.976.827.827,0,0,1,.527.486c-.92-.583-2.625-.753-6.882.666-5.611,1.869-2.807,5.126-1.957,5.387s2.416-1.415,3.824-1.644,2.17,1.733,2.707,1.9.232-.283.794-.73.885.6.873,1.343,1.084,1.438,1.084,1.438l.643-1.179c.643-1.179.468-5.459-.146-6.23l-.164-.206" transform="translate(-322.208 -66.51)"/>
          <path id="Path_16100" data-name="Path 16100" class="cls-17" d="M389.34,263.7a18.5,18.5,0,0,0-2.4,0,6.388,6.388,0,0,0-1.87,1.127c0,.128.09.218.359.192s1.126-.282,1.088-.166-2.48,1.024-2.424,1.537,1.592,1.229,2.77,1.1,3.28-1.8,3.446-1.91-.965-1.88-.965-1.88" transform="translate(-295.751 -203.02)"/>
          <path id="Path_16101" data-name="Path 16101" class="cls-16" d="M405.884,173.7c-.625-1.01-.175-1.471-.175-1.471s9.64-7.548,10.4-8.311,4.256-12.9,4.256-12.9,1.2-4.914,4.026-5.456a5.165,5.165,0,0,1,5.255,2.164A5.229,5.229,0,0,1,430,153.6c-2.462,4.147-7.427,12.381-8.877,13.787-3.227,3.131-14.025,7.506-14.025,7.506a3.741,3.741,0,0,1-1.211-1.194" transform="translate(-312.279 -111.999)"/>
        </g>
      </g>
    </g>
    <ellipse id="Ellipse_501" data-name="Ellipse 501" class="cls-24" cx="206.5" cy="4.5" rx="206.5" ry="4.5" transform="translate(254 456)"/>
    <ellipse id="Ellipse_502" data-name="Ellipse 502" class="cls-24" cx="73.5" cy="4.5" rx="73.5" ry="4.5" transform="translate(128 408)"/>
  </g>
</svg>
