<svg width="111" height="71" viewBox="0 0 111 71" fill="none" xmlns="http://www.w3.org/2000/svg">
<path d="M6.8598 37.1601C5.95447 37.0294 5.13314 36.9641 4.3958 36.9641C3.65847 36.9641 3.1078 37.1927 2.7438 37.6501C2.3798 38.1074 2.19314 38.7467 2.1838 39.5681L2.5058 39.4561C3.1778 39.2414 3.74247 39.1341 4.1998 39.1341C6.29047 39.1341 7.3358 40.1141 7.3358 42.0741C7.3358 43.0821 7.04647 43.8474 6.4678 44.3701C5.88914 44.8927 5.04447 45.1541 3.9338 45.1541C2.82314 45.1541 1.98313 44.7434 1.4138 43.9221C0.853802 43.0914 0.573802 41.9107 0.573802 40.3801C0.573802 37.1974 1.82447 35.6061 4.3258 35.6061C5.0258 35.6061 5.7818 35.6901 6.5938 35.8581L6.9998 35.9421L6.8598 37.1601ZM2.4358 40.8141L2.1698 40.9121C2.18847 42.8347 2.80447 43.7961 4.0178 43.7961C4.56847 43.7961 4.98847 43.6467 5.2778 43.3481C5.57647 43.0494 5.7258 42.6341 5.7258 42.1021C5.7258 41.5701 5.58114 41.1734 5.2918 40.9121C5.00247 40.6414 4.59647 40.5061 4.0738 40.5061C3.56047 40.5061 3.01447 40.6087 2.4358 40.8141ZM10.5918 39.3021V45.0001H9.07979V39.3021H8.26779V38.0001H9.07979V37.5521C9.07979 36.5534 9.22445 35.8674 9.51379 35.4941C9.80312 35.1207 10.3165 34.9341 11.0538 34.9341L12.5658 35.0741L12.5518 36.3201C12.0945 36.3014 11.7118 36.2921 11.4038 36.2921C11.1051 36.2921 10.8951 36.3854 10.7738 36.5721C10.6525 36.7494 10.5918 37.0807 10.5918 37.5661V38.0001H12.4398V39.3021H10.5918ZM17.3636 39.3021H15.4316V42.3821C15.4316 42.9514 15.4736 43.3294 15.5576 43.5161C15.6416 43.7027 15.8563 43.7961 16.2016 43.7961L17.3496 43.7541L17.4196 44.9721C16.7943 45.0934 16.3183 45.1541 15.9916 45.1541C15.1983 45.1541 14.6523 44.9721 14.3536 44.6081C14.0643 44.2441 13.9196 43.5581 13.9196 42.5501V39.3021H13.0236V38.0001H13.9196V35.9701H15.4316V38.0001H17.3636V39.3021Z" fill="#828282"/>
<line x1="22.2804" y1="25.7196" x2="26.7996" y2="25.7196" stroke="#828282" stroke-width="0.560702" stroke-linecap="round"/>
<line x1="22.2804" y1="58.0341" x2="26.7996" y2="58.0341" stroke="#828282" stroke-width="0.560702" stroke-linecap="round"/>
<line x1="24.2804" y1="26.2804" x2="24.2803" y2="57.7197" stroke="#828282" stroke-width="0.560702" stroke-linecap="square"/>
<line x1="75.2805" y1="16.1583" x2="75.2805" y2="21.091" stroke="#828282" stroke-width="0.560702" stroke-linecap="round"/>
<line x1="32.2854" y1="16.1593" x2="32.2854" y2="21.092" stroke="#828282" stroke-width="0.560702" stroke-linecap="round"/>
<line x1="74.7198" y1="18.5128" x2="32.2804" y2="18.5128" stroke="#828282" stroke-width="0.560702" stroke-linecap="square"/>
<path d="M47.472 12.796C48.8907 12.796 49.6093 11.9 49.628 10.108L49.292 10.22C48.5827 10.4627 48.0133 10.584 47.584 10.584C46.576 10.584 45.806 10.346 45.274 9.87C44.742 9.38467 44.476 8.66133 44.476 7.7C44.476 6.73867 44.77 5.98267 45.358 5.432C45.9553 4.88133 46.7627 4.606 47.78 4.606C48.9467 4.606 49.8147 5.02133 50.384 5.852C50.9533 6.68267 51.238 7.91 51.238 9.534C51.238 11.158 50.916 12.334 50.272 13.062C49.6373 13.79 48.704 14.154 47.472 14.154C46.772 14.154 46.016 14.07 45.204 13.902L44.798 13.818L44.938 12.6C45.8433 12.7307 46.688 12.796 47.472 12.796ZM47.71 9.212C48.242 9.212 48.788 9.10933 49.348 8.904L49.642 8.806C49.6233 6.91133 49.0027 5.964 47.78 5.964C47.248 5.964 46.8327 6.118 46.534 6.426C46.2353 6.734 46.086 7.154 46.086 7.686C46.086 8.70333 46.6273 9.212 47.71 9.212ZM54.592 8.302V14H53.08V8.302H52.268V7H53.08V6.552C53.08 5.55333 53.2247 4.86733 53.514 4.494C53.8033 4.12067 54.3167 3.934 55.054 3.934L56.566 4.074L56.552 5.32C56.0947 5.30133 55.712 5.292 55.404 5.292C55.1053 5.292 54.8953 5.38533 54.774 5.572C54.6527 5.74933 54.592 6.08067 54.592 6.566V7H56.44V8.302H54.592ZM61.3638 8.302H59.4318V11.382C59.4318 11.9513 59.4738 12.3293 59.5578 12.516C59.6418 12.7027 59.8565 12.796 60.2018 12.796L61.3498 12.754L61.4198 13.972C60.7945 14.0933 60.3185 14.154 59.9918 14.154C59.1985 14.154 58.6525 13.972 58.3538 13.608C58.0645 13.244 57.9198 12.558 57.9198 11.55V8.302H57.0238V7H57.9198V4.97H59.4318V7H61.3638V8.302Z" fill="#828282"/>
<path d="M25.8086 69.8066H109.635" stroke="#1F1F31" stroke-width="0.660627" stroke-linecap="round" stroke-linejoin="round"/>
<path d="M74.3265 64.043H77.9453V32.4756H74.3265V64.043Z" fill="#1F1F31"/>
<path d="M74.7648 32.4766H33.1296C32.53 32.4766 32.044 32.8507 32.044 33.3121V57.7344C32.044 58.1959 32.53 58.57 33.1296 58.57H74.7648C75.3644 58.57 75.8505 58.1959 75.8505 57.7344V33.3121C75.8505 32.8507 75.3644 32.4766 74.7648 32.4766Z" fill="white" stroke="#1F1F31" stroke-width="0.660627" stroke-miterlimit="10"/>
<path d="M74.7648 32.4766H33.1296C32.53 32.4766 32.044 32.3837 32.044 32.2692V26.2082C32.044 26.0937 32.53 26.0008 33.1296 26.0008H74.7648C75.3644 26.0008 75.8505 26.0937 75.8505 26.2082V32.2692C75.8505 32.3837 75.3644 32.4766 74.7648 32.4766Z" stroke="#1F1F31" stroke-width="0.660627" stroke-miterlimit="10"/>
<path d="M42.7092 26.2861V32.4762" stroke="#1F1F31" stroke-width="0.660627"/>
<path d="M54.041 26V32.19" stroke="#1F1F31" stroke-width="0.660627"/>
<path d="M65.3761 26.0947V32.2848" stroke="#1F1F31" stroke-width="0.660627"/>
<path d="M36.3245 36.9954H71.7589C72.1527 36.9954 72.472 37.3147 72.472 37.7085V51.4301C72.472 51.824 72.1527 52.1432 71.7589 52.1432H36.3245C35.9307 52.1432 35.6114 51.824 35.6114 51.4301V37.7085C35.6114 37.3147 35.9307 36.9954 36.3245 36.9954Z" stroke="#1F1F31" stroke-width="0.660627"/>
<path d="M41.3179 58.7588H36.2897C35.9425 58.7588 35.6611 59.2749 35.6611 59.9116V61.9866C35.6611 62.6233 35.9425 63.1394 36.2897 63.1394H41.3179C41.665 63.1394 41.9464 62.6233 41.9464 61.9866V59.9116C41.9464 59.2749 41.665 58.7588 41.3179 58.7588Z" fill="#9499A3" stroke="#1F1F31" stroke-width="0.660627" stroke-miterlimit="10"/>
<path d="M99.4669 58.5693V64.0928H39.13C38.1618 64.0928 37.376 63.2395 37.376 62.1881V58.5693H99.4669Z" fill="#1F1F31"/>
<path d="M106.133 61.2431C106.133 62.2405 105.965 63.2007 105.655 64.0929H88.8982C88.5882 63.2007 88.4199 62.2405 88.4199 61.2431C88.4199 59.9958 88.6834 58.8098 89.1595 57.7357C90.5256 54.6382 93.6453 52.4746 97.2765 52.4746C100.908 52.4746 104.027 54.6382 105.393 57.7357C105.87 58.8098 106.133 59.9958 106.133 61.2431Z" fill="#1F1F31"/>
<path d="M97.9405 69.8057C101.096 69.8057 103.654 67.2475 103.654 64.0918C103.654 60.9361 101.096 58.3779 97.9405 58.3779C94.7848 58.3779 92.2266 60.9361 92.2266 64.0918C92.2266 67.2475 94.7848 69.8057 97.9405 69.8057Z" fill="#1F1F31"/>
<path d="M97.9163 66.8893C99.4353 66.8893 100.667 65.6579 100.667 64.139C100.667 62.62 99.4353 61.3887 97.9163 61.3887C96.3974 61.3887 95.166 62.62 95.166 64.139C95.166 65.6579 96.3974 66.8893 97.9163 66.8893Z" fill="#707582"/>
<path d="M97.9177 65.4099C98.6194 65.4099 99.1881 64.8411 99.1881 64.1395C99.1881 63.4379 98.6194 62.8691 97.9177 62.8691C97.2161 62.8691 96.6474 63.4379 96.6474 64.1395C96.6474 64.8411 97.2161 65.4099 97.9177 65.4099Z" fill="#1F1F31"/>
<path d="M96.2733 63.4247C96.4837 63.4247 96.6543 63.2542 96.6543 63.0438C96.6543 62.8334 96.4837 62.6629 96.2733 62.6629C96.063 62.6629 95.8924 62.8334 95.8924 63.0438C95.8924 63.2542 96.063 63.4247 96.2733 63.4247Z" fill="#1F1F31"/>
<path d="M99.5105 63.4247C99.7209 63.4247 99.8914 63.2542 99.8914 63.0438C99.8914 62.8334 99.7209 62.6629 99.5105 62.6629C99.3001 62.6629 99.1296 62.8334 99.1296 63.0438C99.1296 63.2542 99.3001 63.4247 99.5105 63.4247Z" fill="#1F1F31"/>
<path d="M96.2733 65.7101C96.4837 65.7101 96.6543 65.5395 96.6543 65.3291C96.6543 65.1188 96.4837 64.9482 96.2733 64.9482C96.063 64.9482 95.8924 65.1188 95.8924 65.3291C95.8924 65.5395 96.063 65.7101 96.2733 65.7101Z" fill="#1F1F31"/>
<path d="M99.5105 65.7101C99.7209 65.7101 99.8914 65.5395 99.8914 65.3291C99.8914 65.1188 99.7209 64.9482 99.5105 64.9482C99.3001 64.9482 99.1296 65.1188 99.1296 65.3291C99.1296 65.5395 99.3001 65.7101 99.5105 65.7101Z" fill="#1F1F31"/>
<path d="M53.3092 61.9963H42.0129C40.7787 61.9963 39.9901 60.6783 40.5768 59.5907L42.4109 56.1872C42.6947 55.6596 43.2471 55.3301 43.847 55.3301H51.4751C52.075 55.3301 52.6274 55.6596 52.9112 56.1872L54.7453 59.5907C55.3319 60.6783 54.5434 61.9963 53.3092 61.9963Z" fill="#1F1F31"/>
<path d="M101.181 58.3789H108.228V60.5994C108.228 62.5284 106.714 64.0928 104.851 64.0928H101.181V58.3789Z" fill="#1F1F31"/>
<path d="M47.6612 69.8057C50.8169 69.8057 53.3751 67.2475 53.3751 64.0918C53.3751 60.9361 50.8169 58.3779 47.6612 58.3779C44.5055 58.3779 41.9473 60.9361 41.9473 64.0918C41.9473 67.2475 44.5055 69.8057 47.6612 69.8057Z" fill="#1F1F31"/>
<path d="M47.6388 66.8893C49.1577 66.8893 50.3891 65.6579 50.3891 64.139C50.3891 62.62 49.1577 61.3887 47.6388 61.3887C46.1199 61.3887 44.8885 62.62 44.8885 64.139C44.8885 65.6579 46.1199 66.8893 47.6388 66.8893Z" fill="#707582"/>
<path d="M47.6384 65.4099C48.3401 65.4099 48.9088 64.8411 48.9088 64.1395C48.9088 63.4379 48.3401 62.8691 47.6384 62.8691C46.9368 62.8691 46.3681 63.4379 46.3681 64.1395C46.3681 64.8411 46.9368 65.4099 47.6384 65.4099Z" fill="#1F1F31"/>
<path d="M45.9972 63.4249C46.2075 63.4249 46.3781 63.2544 46.3781 63.044C46.3781 62.8336 46.2075 62.6631 45.9972 62.6631C45.7868 62.6631 45.6162 62.8336 45.6162 63.044C45.6162 63.2544 45.7868 63.4249 45.9972 63.4249Z" fill="#1F1F31"/>
<path d="M49.2345 63.4248C49.4449 63.4248 49.6155 63.2542 49.6155 63.0438C49.6155 62.8334 49.4449 62.6629 49.2345 62.6629C49.0242 62.6629 48.8536 62.8334 48.8536 63.0438C48.8536 63.2542 49.0242 63.4248 49.2345 63.4248Z" fill="#1F1F31"/>
<path d="M45.9974 65.71C46.2078 65.71 46.3783 65.5395 46.3783 65.3291C46.3783 65.1187 46.2078 64.9482 45.9974 64.9482C45.787 64.9482 45.6165 65.1187 45.6165 65.3291C45.6165 65.5395 45.787 65.71 45.9974 65.71Z" fill="#1F1F31"/>
<path d="M49.2348 65.71C49.4451 65.71 49.6157 65.5394 49.6157 65.329C49.6157 65.1187 49.4451 64.9481 49.2348 64.9481C49.0244 64.9481 48.8538 65.1187 48.8538 65.329C48.8538 65.5394 49.0244 65.71 49.2348 65.71Z" fill="#1F1F31"/>
<path d="M67.4876 58.7588H58.4978C57.8772 58.7588 57.374 59.2749 57.374 59.9116V61.9866C57.374 62.6233 57.8772 63.1394 58.4978 63.1394H67.4876C68.1082 63.1394 68.6114 62.6233 68.6114 61.9866V59.9116C68.6114 59.2749 68.1082 58.7588 67.4876 58.7588Z" fill="#9499A3"/>
<path d="M76.4209 32.2859V61.0897C76.4209 61.6153 76.8476 62.042 77.3732 62.042H89.5552C89.9133 62.042 90.2428 61.8401 90.4047 61.5201L92.7569 56.8842C93.2674 55.8786 94.1987 55.1491 95.2977 54.8958L97.6061 54.3625C98.2042 54.2254 98.8251 54.233 99.4193 54.3873L102.132 55.0901C103.109 55.3434 103.947 55.9757 104.459 56.8461L105.287 58.2537C105.459 58.5451 105.771 58.7222 106.108 58.7222H107.335C107.838 58.7222 108.255 58.3317 108.285 57.8289L108.763 50.1933C108.786 49.82 108.59 49.4676 108.259 49.2924L99.7031 44.7536C99.5488 44.6717 99.4212 44.5498 99.3317 44.4013L92.1132 32.3126C91.9475 32.0364 91.6541 31.8612 91.3304 31.8498L77.4094 31.3336C76.8685 31.3146 76.4209 31.7469 76.4209 32.2859Z" fill="white" stroke="#1F1F31" stroke-width="0.660627"/>
<path d="M83.0874 47.7129H80.8019C80.4863 47.7129 80.2305 47.9687 80.2305 48.2843V48.4747C80.2305 48.7903 80.4863 49.0461 80.8019 49.0461H83.0874C83.403 49.0461 83.6588 48.7903 83.6588 48.4747V48.2843C83.6588 47.9687 83.403 47.7129 83.0874 47.7129Z" fill="#1F1F31"/>
<path d="M102.134 50.7608H99.8485C99.533 50.7608 99.2771 51.0166 99.2771 51.3322V51.5226C99.2771 51.8382 99.533 52.094 99.8485 52.094H102.134C102.45 52.094 102.705 51.8382 102.705 51.5226V51.3322C102.705 51.0166 102.45 50.7608 102.134 50.7608Z" fill="#1F1F31"/>
<path d="M89.9745 34.9521H80.5122C79.9359 34.9521 79.4688 35.4193 79.4688 35.9956V41.7387C79.4688 42.2675 79.8644 42.7127 80.3896 42.7749L93.6145 44.3399C94.4445 44.4382 95.0474 43.5693 94.6648 42.8261L90.9022 35.518C90.7233 35.1705 90.3652 34.9521 89.9745 34.9521Z" fill="#9499A3" stroke="#1F1F31" stroke-width="0.660627"/>
<path d="M106.598 57.5949L105.516 53.3965C105.346 52.7361 105.845 52.0928 106.527 52.0928H108.088C108.683 52.0928 109.158 52.5893 109.131 53.1836L108.94 57.382C108.915 57.9393 108.455 58.3781 107.898 58.3781H107.608C107.132 58.3781 106.717 58.0559 106.598 57.5949Z" fill="#1F1F31" stroke="#1F1F31" stroke-width="0.626059"/>
<path d="M86.9614 43.6175L89.8297 40.2144C90.0719 39.9379 90.4939 39.9101 90.7704 40.1523C91.0469 40.3945 91.0748 40.8165 90.8325 41.093L88.4404 43.8236L86.9614 43.6175Z" fill="#1F1F31"/>
<path d="M94.4968 42.5703H93.5826C93.3617 42.5703 93.1826 42.7494 93.1826 42.9703V45.0273C93.1826 45.2482 93.3617 45.4273 93.5826 45.4273H94.4968C94.7177 45.4273 94.8968 45.2482 94.8968 45.0273V42.9703C94.8968 42.7494 94.7177 42.5703 94.4968 42.5703Z" fill="#1F1F31"/>
<path d="M92.4874 36.665H92.9534C93.7093 36.665 94.3248 38.553 94.3248 40.8819V43.073C94.3248 43.8447 94.1201 44.474 93.8692 44.474H91.733C91.482 44.474 91.2774 43.8447 91.2774 43.073V40.3904C91.2774 38.3371 91.8196 36.6696 92.4874 36.6696V36.665Z" fill="#1F1F31"/>
<path d="M81.7828 37.998C82.7541 37.998 83.5426 38.7866 83.5426 39.7579V42.5558C83.5426 42.8796 83.2798 43.1405 82.9579 43.1405H80.8152C80.4914 43.1405 80.2305 42.8777 80.2305 42.5558V39.5522C80.2305 38.6951 80.9276 37.998 81.7847 37.998H81.7828Z" fill="#1F1F31"/>
</svg>
